<mxfile host="app.diagrams.net" modified="2024-05-30T23:27:34.807Z" agent="Mozilla/5.0 (Windows NT 10.0; Win64; x64) AppleWebKit/537.36 (KHTML, like Gecko) Chrome/125.0.0.0 Safari/537.36" version="24.4.10" etag="RkROwQGeQDIrNY2umc-5" type="github">
  <diagram name="PÃ¡gina-1" id="E7NRfldLIbE3DxFSJeh7">
    <mxGraphModel>
      <root>
        <mxCell id="0" />
        <mxCell id="1" parent="0" />
      </root>
    </mxGraphModel>
  </diagram>
</mxfile>
